<mxfile host="app.diagrams.net" modified="2024-01-02T05:22:58.455Z" agent="Mozilla/5.0 (Windows NT 10.0; Win64; x64) AppleWebKit/537.36 (KHTML, like Gecko) Chrome/120.0.0.0 Safari/537.36" version="22.1.15" etag="_Uqo7XAyWqaF2KN0frBA" type="github">
  <diagram name="페이지-1" id="nj3TY9anS_ZJPsa495sF">
    <mxGraphModel>
      <root>
        <mxCell id="0" />
        <mxCell id="1" parent="0" />
      </root>
    </mxGraphModel>
  </diagram>
</mxfile>
